<?xml version="1.0" encoding="UTF-8"?>
<!DOCTYPE svg PUBLIC "-//W3C//DTD SVG 1.1//EN" "http://www.w3.org/Graphics/SVG/1.1/DTD/svg11.dtd">
<!-- Creator: CorelDRAW 2021 (64-Bit) -->
<svg xmlns="http://www.w3.org/2000/svg" xml:space="preserve" width="4000px" height="3992px" version="1.1" style="shape-rendering:geometricPrecision; text-rendering:geometricPrecision; image-rendering:optimizeQuality; fill-rule:evenodd; clip-rule:evenodd"
viewBox="0 0 752.13 750.62"
 xmlns:xlink="http://www.w3.org/1999/xlink"
 xmlns:xodm="http://www.corel.com/coreldraw/odm/2003">
 <defs>
  <style type="text/css">
   <![CDATA[
    .fil0 {fill:#F7F7F7}
   ]]>
  </style>
 </defs>
 <g id="Layer_x0020_1">
  <metadata id="CorelCorpID_0Corel-Layer"/>
  <g id="_1748669259936">
   <path class="fil0" d="M0 750.62c47.61,-11.42 97.76,-30.05 148.57,-46.58 84.3,-27.42 61.7,-1.65 143.47,17.75 368.9,87.54 613.1,-359.47 349.59,-617.13 -62.51,-61.13 -164.1,-113.71 -292.3,-103.35 -269.99,21.84 -412.36,313.49 -302.04,522.79 19,36.05 16.37,34.23 1.71,74.8 -12.24,33.88 -44.51,118.47 -49,151.72zm92.37 -92.13c27.6,-6.04 102.13,-36.15 123.54,-30.42 10.92,2.91 39.71,20.19 56.13,26.27 304.98,112.68 569.76,-268.32 323.77,-509.52 -200.18,-196.27 -570.14,-28.77 -521.66,270.76 9.58,59.17 25.38,75.08 46.5,117.74 16.13,32.57 -18.8,89.42 -28.28,125.17z"/>
   <path class="fil0" d="M567.2 451.23c-17.01,-13 -68.65,-38.89 -92.03,-40.93 -16.37,13.22 -25.1,31.28 -43.68,44.51 -51.07,-12.09 -125.13,-73.4 -136.23,-118.25 24.42,-46.29 42.46,-17.65 12.69,-89.56 -5.02,-12.1 -12.25,-38.04 -21.72,-43.94 -41.34,-25.76 -147.85,46.13 -33.7,197.68 123.43,163.88 329.37,176.26 314.67,50.49z"/>
  </g>
 </g>
</svg>
